<svg xmlns="http://www.w3.org/2000/svg" width="100%" height="100%" viewBox="0 0 51 50" fill="none" preserveAspectRatio="xMidYMid meet" aria-hidden="true" role="img">
<path d="M23.5138 3.02315L23.3027 3.04899C23.1279 3.07066 7.02891 6.19267 6.74227 6.2605C6.32711 6.35873 5.8157 6.58215 5.45825 6.82144C4.54015 7.43603 3.90985 8.36647 3.69099 9.43032C3.59547 9.8945 3.57913 10.4114 3.64617 10.8474C3.67034 11.0046 8.18526 34.2866 8.35206 35.1142C8.48507 35.7741 8.65234 36.2015 8.96647 36.6837C9.12794 36.9316 9.25221 37.0866 9.46802 37.3092C10.3597 38.2291 11.6221 38.6749 12.9074 38.5237C13.0528 38.5066 13.6544 38.394 14.452 38.2347C14.6679 38.1916 14.8975 38.1353 14.9621 38.1097C15.3534 37.9546 15.6586 37.606 15.7761 37.1799C15.8289 36.9883 15.8288 36.6943 15.7759 36.4939C15.6997 36.2056 15.5444 35.9574 15.3368 35.7922C15.0437 35.5591 14.7957 35.4667 14.4595 35.4656C14.3024 35.465 14.1732 35.4856 13.4569 35.6256C12.5022 35.8122 12.3488 35.828 12.0982 35.7654C11.842 35.7015 11.5748 35.5441 11.3992 35.3535C11.2341 35.1743 11.1365 34.967 11.0673 34.6483C10.9648 34.1758 6.37747 10.5007 6.36558 10.3824C6.32528 9.98169 6.46976 9.5908 6.76866 9.29191C6.93984 9.12073 7.07885 9.03343 7.28422 8.96814C7.36344 8.94297 11.0811 8.21354 15.5458 7.34719C23.1531 5.87101 23.6749 5.77202 23.848 5.77218C24.5013 5.77279 25.0254 6.20755 25.1755 6.87336C25.2796 7.33509 25.555 7.67345 25.9856 7.86866C26.3204 8.02047 26.7792 8.00929 27.1296 7.84076C27.6385 7.59597 27.9493 7.03782 27.8919 6.47153C27.8717 6.27232 27.7709 5.88792 27.6732 5.63758C27.1361 4.26156 25.9149 3.28481 24.446 3.05622C24.2701 3.02885 23.6505 3.00686 23.5138 3.02315Z" fill="currentColor"></path>
<path fill-rule="evenodd" clip-rule="evenodd" d="M34.2295 21.6508C33.9068 21.6523 33.5579 21.7779 33.3283 21.9754C33.1654 22.1155 33.0719 22.2501 32.8651 22.6424C31.8713 24.5269 31.0696 25.3432 29.7085 25.8563C29.1156 26.0799 28.2666 26.2706 27.3086 26.3954C26.792 26.4627 26.7663 26.4675 26.6159 26.5228C26.2206 26.6681 25.9124 26.9946 25.775 27.4138C25.6076 27.9243 25.8015 28.5474 26.2344 28.8902C26.2683 28.9171 26.458 29.0353 26.6559 29.153C28.4848 30.2402 29.3787 31.1213 29.8415 32.2928C30.1026 32.9538 30.2457 33.6958 30.3341 34.8467C30.3663 35.2663 30.3849 35.3798 30.4463 35.5307C30.5072 35.6807 30.6802 35.9373 30.7854 36.0337C31.2569 36.4659 31.9504 36.5229 32.4895 36.1736C32.7263 36.0202 32.8221 35.8957 33.0841 35.4011C33.6927 34.2519 34.1753 33.5789 34.7585 33.0664C35.6169 32.312 36.7603 31.9027 38.7027 31.6548C39.1218 31.6013 39.1968 31.5868 39.3412 31.5317C39.7431 31.3783 40.0509 31.0372 40.1804 30.6016C40.303 30.1894 40.1719 29.6499 39.8707 29.3265C39.7449 29.1914 39.6933 29.1533 39.3933 28.9742C38.1108 28.2083 37.3538 27.621 36.812 26.9719C36.7433 26.8895 36.6172 26.7176 36.5318 26.5898C35.9876 25.775 35.7274 24.8259 35.6052 23.2091C35.5734 22.7885 35.5544 22.6766 35.4864 22.5122C35.3142 22.0957 34.9757 21.8078 34.5257 21.6952C34.411 21.6665 34.3043 21.6505 34.2295 21.6508ZM30.5357 28.4861C31.6583 28.078 32.5764 27.509 33.323 26.7585C33.3979 26.6832 33.4636 26.6244 33.469 26.6278C33.4744 26.6313 33.5223 26.7401 33.5754 26.8696C33.9635 27.817 34.5579 28.6776 35.3301 29.4104C35.4578 29.5315 35.4671 29.5449 35.4339 29.5596C35.4139 29.5684 35.2884 29.6178 35.1552 29.6693C34.1893 30.043 33.3155 30.6033 32.623 31.2933L32.47 31.4457L32.3546 31.167C31.9818 30.2666 31.4992 29.5494 30.7658 28.8057L30.4731 28.5089L30.5357 28.4861Z" fill="currentColor"></path>
<path fill-rule="evenodd" clip-rule="evenodd" d="M26.2225 11.043C26.1984 11.0471 26.1113 11.0592 26.0291 11.0699C24.8065 11.2288 23.7249 12.1772 23.4013 13.3741C23.3901 13.4156 23.0544 15.0659 22.5564 17.5221C22.2422 17.4412 21.9615 17.3458 21.6995 17.233C21.6009 17.1905 21.4108 17.0941 21.2769 17.0187C20.4232 16.5378 19.7623 15.8086 18.9227 14.4215C18.7043 14.0606 18.6367 13.9694 18.5019 13.8535C18.16 13.5597 17.7279 13.4558 17.2756 13.5587C17.1604 13.5849 17.0579 13.6189 16.9914 13.6529C16.7041 13.8 16.4496 14.0698 16.3341 14.3496C16.2521 14.5483 16.2295 14.7106 16.2222 15.154C16.1871 17.2842 15.8407 18.3746 14.8584 19.4474C14.4304 19.9148 13.7592 20.4685 12.961 21.0127C12.5306 21.3062 12.5098 21.322 12.4006 21.4393C12.1136 21.7476 11.9863 22.1781 12.053 22.6142C12.1344 23.1453 12.5889 23.6135 13.13 23.7237C13.1724 23.7323 13.3951 23.7521 13.6248 23.7676C15.7476 23.9112 16.9431 24.2933 17.8853 25.1293C18.4169 25.601 18.8799 26.1983 19.4787 27.1851C19.697 27.5448 19.7649 27.6377 19.8878 27.7446C20.01 27.8509 20.2803 28.0016 20.4177 28.0401L20.4274 28.0428C19.2183 34.0259 18.096 39.5911 18.0766 39.7128C18.044 39.9174 18.0488 40.4468 18.0852 40.6626C18.1998 41.3418 18.5089 41.9468 18.9841 42.422C19.3795 42.8174 19.8728 43.1079 20.3843 43.2464C20.5675 43.2961 38.3631 46.8944 38.6583 46.9415C38.9012 46.9802 39.3438 46.9806 39.5905 46.9422C40.526 46.7967 41.3095 46.2878 41.8319 45.4863C42.0653 45.1283 42.1853 44.8015 42.3159 44.168C42.6107 42.7383 47.5079 18.4662 47.532 18.3153C47.5906 17.9489 47.5652 17.4461 47.4688 17.0621C47.2242 16.0874 46.4978 15.2562 45.5579 14.8756C45.4538 14.8334 45.2895 14.7787 45.1927 14.7541C45.0132 14.7084 27.2933 11.1246 27.0053 11.0757C26.8537 11.05 26.3144 11.0275 26.2225 11.043ZM26.3775 13.8014C26.199 13.8503 26.0855 13.9772 26.0399 14.1787C26.0253 14.2433 24.8415 20.097 23.4092 27.1869C21.7496 35.4021 20.8051 40.1136 20.8054 40.1767C20.806 40.3445 20.907 40.4993 21.0603 40.5676C21.14 40.6031 39.0408 44.2245 39.1366 44.2245C39.318 44.2245 39.5081 44.0782 39.557 43.901C39.6001 43.7451 44.8145 17.8968 44.8145 17.8394C44.8145 17.6578 44.6692 17.4655 44.4959 17.4179C44.419 17.3968 26.6235 13.802 26.5304 13.7888C26.4917 13.7833 26.4229 13.789 26.3775 13.8014ZM16.7845 21.4197C17.6017 20.5484 18.1635 19.626 18.4905 18.6191C18.5233 18.5181 18.5554 18.4359 18.5617 18.4365C18.5681 18.4371 18.66 18.5126 18.7659 18.6042C19.5402 19.2739 20.4593 19.7731 21.4793 20.0779C21.6479 20.1283 21.6623 20.136 21.6393 20.1641C21.6254 20.1811 21.5358 20.2818 21.4402 20.388C20.7474 21.1578 20.2211 22.0524 19.915 22.9809L19.8474 23.186L19.6185 22.9895C18.8791 22.3547 18.1246 21.9329 17.1342 21.6008L16.739 21.4683L16.7845 21.4197Z" fill="currentColor"></path>
</svg>