<svg xmlns="http://www.w3.org/2000/svg" width="100%" height="100%" viewBox="0 0 33 32" fill="none" preserveAspectRatio="xMidYMid meet" aria-hidden="true" role="img">
<path d="M28.2973 16.7074L19.2973 25.7074C19.1097 25.8951 18.8552 26.0005 18.5898 26.0005C18.3245 26.0005 18.07 25.8951 17.8823 25.7074C17.6947 25.5198 17.5893 25.2653 17.5893 24.9999C17.5893 24.7346 17.6947 24.4801 17.8823 24.2924L25.1761 16.9999H5.58984C5.32463 16.9999 5.07027 16.8946 4.88274 16.7071C4.6952 16.5195 4.58984 16.2652 4.58984 15.9999C4.58984 15.7347 4.6952 15.4804 4.88274 15.2928C5.07027 15.1053 5.32463 14.9999 5.58984 14.9999H25.1761L17.8823 7.70745C17.6947 7.5198 17.5893 7.26531 17.5893 6.99995C17.5893 6.73458 17.6947 6.48009 17.8823 6.29245C18.07 6.1048 18.3245 5.99939 18.5898 5.99939C18.8552 5.99939 19.1097 6.1048 19.2973 6.29245L28.2973 15.2924C28.3903 15.3853 28.4641 15.4956 28.5144 15.617C28.5647 15.7384 28.5906 15.8685 28.5906 15.9999C28.5906 16.1314 28.5647 16.2615 28.5144 16.3829C28.4641 16.5043 28.3903 16.6146 28.2973 16.7074Z" fill="currentColor"></path>
</svg>