<svg xmlns="http://www.w3.org/2000/svg" width="100%" height="100%" viewBox="0 0 21 21" fill="none" preserveAspectRatio="xMidYMid meet" aria-hidden="true" role="img">
<path d="M20.5 10.5C20.5 10.721 20.4122 10.933 20.2559 11.0893C20.0996 11.2455 19.8877 11.3333 19.6667 11.3333H11.3333V19.6667C11.3333 19.8877 11.2455 20.0996 11.0893 20.2559C10.933 20.4122 10.721 20.5 10.5 20.5C10.279 20.5 10.067 20.4122 9.91074 20.2559C9.75446 20.0996 9.66667 19.8877 9.66667 19.6667V11.3333H1.33333C1.11232 11.3333 0.900358 11.2455 0.744078 11.0893C0.587798 10.933 0.5 10.721 0.5 10.5C0.5 10.279 0.587798 10.067 0.744078 9.91074C0.900358 9.75446 1.11232 9.66667 1.33333 9.66667H9.66667V1.33333C9.66667 1.11232 9.75446 0.900358 9.91074 0.744078C10.067 0.587798 10.279 0.5 10.5 0.5C10.721 0.5 10.933 0.587798 11.0893 0.744078C11.2455 0.900358 11.3333 1.11232 11.3333 1.33333V9.66667H19.6667C19.8877 9.66667 20.0996 9.75446 20.2559 9.91074C20.4122 10.067 20.5 10.279 20.5 10.5Z" fill="currentColor"></path>
</svg>