<svg xmlns="http://www.w3.org/2000/svg" width="100%" height="100%" viewBox="0 0 32 32" fill="none" preserveAspectRatio="xMidYMid meet" aria-hidden="true" role="img">
<g>
<path d="M4.2925 16.7075L13.2925 25.7075C13.4801 25.8951 13.7346 26.0006 14 26.0006C14.2654 26.0006 14.5199 25.8951 14.7075 25.7075C14.8951 25.5199 15.0006 25.2654 15.0006 25C15.0006 24.7346 14.8951 24.4801 14.7075 24.2925L7.41375 17H27C27.2652 17 27.5196 16.8947 27.7071 16.7071C27.8946 16.5196 28 16.2652 28 16C28 15.7348 27.8946 15.4804 27.7071 15.2929C27.5196 15.1054 27.2652 15 27 15H7.41375L14.7075 7.70751C14.8951 7.51987 15.0006 7.26537 15.0006 7.00001C15.0006 6.73464 14.8951 6.48015 14.7075 6.29251C14.5199 6.10487 14.2654 5.99945 14 5.99945C13.7346 5.99945 13.4801 6.10487 13.2925 6.29251L4.2925 15.2925C4.19952 15.3854 4.12576 15.4957 4.07544 15.6171C4.02511 15.7385 3.99921 15.8686 3.99921 16C3.99921 16.1314 4.02511 16.2615 4.07544 16.3829C4.12576 16.5043 4.19952 16.6146 4.2925 16.7075Z" fill="currentColor"></path>
</g>
</svg>