<svg xmlns="http://www.w3.org/2000/svg" width="100%" height="100%" viewBox="0 0 51 50" fill="none" preserveAspectRatio="xMidYMid meet" aria-hidden="true" role="img">
<path d="M48.4629 11.8515C46.9687 9.27537 43.0254 8.6953 37.0371 10.1601C34.2647 8.01647 30.9467 6.6933 27.46 6.34093C23.9733 5.98857 20.4577 6.62114 17.3125 8.16678C14.1673 9.71243 11.5186 12.1092 9.66736 15.0848C7.81611 18.0604 6.8365 21.4955 6.8398 25C6.84005 25.8038 6.89093 26.6068 6.99215 27.4043C1.58394 33.0078 1.66207 36.3281 2.71871 38.1484C3.7148 39.875 5.79293 40.625 8.5273 40.625C10.4258 40.5857 12.3131 40.3235 14.1504 39.8437C16.923 41.9853 20.2406 43.3066 23.7264 43.6576C27.2123 44.0086 30.7267 43.3752 33.8706 41.8293C37.0146 40.2835 39.6621 37.8871 41.5127 34.9123C43.3633 31.9375 44.3427 28.5034 44.3398 25C44.3402 24.2001 44.29 23.401 44.1894 22.6074C46.6308 20.0683 48.2558 17.6562 48.8086 15.5918C49.1894 14.1621 49.0742 12.9043 48.4629 11.8515ZM25.5898 9.37498C29.1288 9.37862 32.562 10.5819 35.3289 12.7883C38.0958 14.9948 40.033 18.074 40.8242 21.5234C37.4921 24.6601 32.9824 27.8769 28.7011 30.3379C23.3203 33.4258 18.6523 35.3515 14.9296 36.4062C12.6368 34.2678 11.0409 31.4886 10.3497 28.4305C9.65847 25.3723 9.90395 22.1769 11.0542 19.2603C12.2044 16.3436 14.2061 13.8408 16.7987 12.0777C19.3912 10.3145 22.4545 9.37277 25.5898 9.37498ZM5.42183 36.5801C5.13668 36.0898 5.29488 35.166 5.85543 34.041C6.40974 32.9869 7.08415 32.0006 7.86519 31.1015C8.63941 33.3447 9.83241 35.4205 11.3808 37.2187C8.01168 37.7851 5.91012 37.4238 5.42183 36.5801ZM25.5898 40.625C22.9553 40.6277 20.3635 39.9595 18.0586 38.6836C22.2892 37.1873 26.3713 35.3003 30.2519 33.0469C34.4668 30.6269 38.1972 28.0039 41.2031 25.414C41.0918 29.4827 39.3986 33.3477 36.4832 36.1879C33.5678 39.0282 29.66 40.6199 25.5898 40.625ZM45.789 14.7832C45.457 16.0156 44.58 17.4258 43.3222 18.9101C42.55 16.6643 41.3569 14.5862 39.8066 12.7871C42.582 12.3281 45.1523 12.3633 45.7636 13.4199C45.9394 13.7265 45.9492 14.1855 45.789 14.7832Z" fill="currentColor"></path>
</svg>