<svg xmlns="http://www.w3.org/2000/svg" width="100%" height="100%" viewBox="0 0 51 50" fill="none" preserveAspectRatio="xMidYMid meet" aria-hidden="true" role="img">
<path d="M45.6895 33.5938C45.8958 33.952 45.9519 34.3773 45.8454 34.7767C45.7388 35.176 45.4784 35.5169 45.1211 35.7247L26.3711 46.6622C26.1322 46.8015 25.8606 46.8749 25.584 46.8749C25.3074 46.8749 25.0358 46.8015 24.7969 46.6622L6.04688 35.7247C5.69471 35.5131 5.44007 35.1713 5.33809 34.7733C5.2361 34.3753 5.29497 33.9531 5.50195 33.5982C5.70894 33.2433 6.04738 32.9842 6.444 32.877C6.84062 32.7698 7.26351 32.8232 7.62109 33.0255L25.5898 43.504L43.5586 33.0255C43.9167 32.8191 44.342 32.763 44.7414 32.8696C45.1408 32.9761 45.4817 33.2365 45.6895 33.5938ZM43.5586 23.6505L25.5898 34.129L7.62109 23.6505C7.26532 23.4733 6.85542 23.4384 6.47481 23.5529C6.09421 23.6673 5.77152 23.9224 5.57241 24.2664C5.3733 24.6104 5.31275 25.0173 5.40307 25.4043C5.49339 25.7913 5.7278 26.1294 6.05859 26.3497L24.8086 37.2872C25.0475 37.4265 25.3191 37.4999 25.5957 37.4999C25.8723 37.4999 26.1439 37.4265 26.3828 37.2872L45.1328 26.3497C45.3129 26.2478 45.471 26.1112 45.5978 25.9477C45.7247 25.7842 45.8178 25.5972 45.8718 25.3974C45.9258 25.1977 45.9395 24.9892 45.9123 24.7841C45.8851 24.579 45.8174 24.3813 45.7131 24.2026C45.6089 24.0239 45.4702 23.8676 45.3051 23.7429C45.1399 23.6182 44.9517 23.5275 44.7513 23.4762C44.5508 23.4248 44.3422 23.4138 44.1374 23.4437C43.9327 23.4736 43.7359 23.5439 43.5586 23.6505ZM5.27734 15.6251C5.27797 15.3514 5.35046 15.0827 5.48757 14.8459C5.62467 14.609 5.82159 14.4123 6.05859 14.2755L24.8086 3.33798C25.0475 3.19866 25.3191 3.12524 25.5957 3.12524C25.8723 3.12524 26.1439 3.19866 26.3828 3.33798L45.1328 14.2755C45.3687 14.4131 45.5644 14.6101 45.7004 14.8469C45.8364 15.0837 45.9079 15.352 45.9079 15.6251C45.9079 15.8982 45.8364 16.1665 45.7004 16.4033C45.5644 16.6401 45.3687 16.8371 45.1328 16.9747L26.3828 27.9122C26.1439 28.0515 25.8723 28.1249 25.5957 28.1249C25.3191 28.1249 25.0475 28.0515 24.8086 27.9122L6.05859 16.9747C5.82159 16.8379 5.62467 16.6412 5.48757 16.4043C5.35046 16.1675 5.27797 15.8988 5.27734 15.6251ZM9.94141 15.6251L25.5898 24.754L41.2383 15.6251L25.5898 6.49618L9.94141 15.6251Z" fill="currentColor"></path>
</svg>